<?xml version="1.0" standalone="no"?>
<!DOCTYPE svg PUBLIC "-//W3C//DTD SVG 20010904//EN"
 "http://www.w3.org/TR/2001/REC-SVG-20010904/DTD/svg10.dtd">
<svg version="1.0" xmlns="http://www.w3.org/2000/svg"
 width="1012.000000pt" height="246.000000pt" viewBox="0 0 1012.000000 246.000000"
 preserveAspectRatio="xMidYMid meet">

<g transform="translate(0.000000,246.000000) scale(0.100000,-0.100000)"
fill="#000000" stroke="none">
<path d="M585 2049 c-231 -133 -433 -254 -450 -270 l-30 -29 0 -519 c0 -598
-9 -545 105 -611 36 -20 189 -108 340 -195 453 -262 450 -260 496 -259 34 1
98 34 385 199 189 109 379 219 422 243 43 25 89 58 102 74 l25 30 0 511 c0
469 -2 514 -18 540 -12 21 -128 93 -407 254 -461 266 -475 273 -517 273 -25 0
-137 -60 -453 -241z m425 -418 c38 -66 70 -124 70 -129 0 -5 -31 -63 -69 -128
l-68 -119 -140 -3 -141 -3 -71 122 c-39 67 -71 125 -71 129 0 4 32 62 71 129
l71 121 139 0 138 0 71 -119z m488 -282 l70 -121 -71 -124 -72 -124 -141 0
-142 0 -71 125 -72 124 57 98 c31 54 63 108 71 121 13 21 19 22 157 22 l143 0
71 -121z m-486 -262 c37 -66 68 -124 67 -130 0 -7 -31 -64 -68 -127 l-67 -115
-143 0 -143 0 -69 119 c-41 71 -67 126 -64 135 3 9 36 67 71 129 l66 113 141
-3 141 -3 68 -118z"/>
<path d="M2921 1668 c-24 -167 -67 -476 -97 -688 -29 -212 -56 -400 -59 -417
l-6 -33 179 0 179 0 12 73 c6 39 42 299 81 577 39 278 79 567 90 643 11 76 20
140 20 143 0 2 -80 4 -178 4 l-179 0 -42 -302z"/>
<path d="M6940 1893 c-63 -8 -117 -16 -119 -18 -2 -3 -18 -57 -36 -122 l-31
-118 -72 -3 c-40 -2 -72 -6 -72 -10 0 -4 -7 -52 -15 -107 -8 -55 -15 -106 -15
-112 0 -9 18 -13 60 -13 54 0 60 -2 60 -21 0 -11 -16 -134 -36 -272 -42 -299
-43 -382 -1 -463 50 -98 136 -144 268 -144 38 0 92 5 121 11 66 14 168 58 168
73 0 6 -16 57 -37 114 -29 79 -41 101 -53 96 -8 -4 -32 -11 -53 -17 -33 -8
-42 -7 -65 10 -39 29 -38 62 3 352 19 139 35 255 35 257 0 2 41 5 92 6 l92 3
37 118 37 117 -109 0 -109 0 0 28 c0 15 7 70 15 122 8 52 15 103 15 113 0 21
-18 21 -180 0z"/>
<path d="M4004 1656 c-58 -19 -125 -67 -181 -131 -26 -30 -51 -55 -55 -55 -4
0 -5 36 -1 80 l6 80 -151 0 c-149 0 -152 0 -157 -22 -2 -13 -18 -124 -35 -248
-17 -124 -46 -333 -65 -465 -18 -132 -37 -268 -41 -302 l-7 -63 172 0 c94 0
171 3 171 8 0 4 18 138 40 297 40 284 41 292 82 374 49 99 103 161 142 161 53
0 53 -20 -3 -430 -28 -206 -53 -383 -55 -392 -4 -17 9 -18 168 -18 l173 0 58
408 c68 473 71 534 31 616 -39 80 -84 108 -179 112 -43 2 -89 -2 -113 -10z"/>
<path d="M5050 1648 c-41 -16 -74 -40 -132 -100 l-78 -78 0 80 0 80 -150 0
c-147 0 -150 0 -154 -22 -3 -13 -21 -140 -41 -283 -19 -143 -51 -372 -70 -510
-19 -137 -35 -258 -35 -267 0 -16 15 -18 170 -18 94 0 170 3 170 8 0 4 20 142
44 307 42 293 44 303 82 375 48 93 101 150 138 150 52 0 52 -23 2 -390 -25
-184 -49 -361 -52 -392 l-7 -58 171 0 170 0 5 33 c3 17 32 216 63 442 52 374
56 415 46 474 -21 126 -98 191 -222 190 -41 0 -85 -8 -120 -21z"/>
<path d="M5930 1654 c-99 -26 -161 -63 -241 -144 -86 -87 -131 -167 -176 -315
-24 -83 -27 -105 -27 -270 l-1 -180 34 -73 c60 -128 147 -182 291 -182 88 0
169 39 239 116 l50 54 23 -42 c28 -51 96 -95 173 -113 l56 -13 35 76 c69 149
68 148 45 171 -13 13 -21 34 -21 54 0 17 23 198 52 400 45 319 50 369 38 377
-32 21 -178 73 -240 86 -84 18 -259 17 -330 -2z m219 -239 c6 -7 -69 -517 -81
-547 -13 -34 -99 -115 -130 -123 -38 -10 -77 11 -93 50 -18 41 -20 203 -4 291
43 241 128 355 254 339 27 -3 51 -8 54 -10z"/>
<path d="M9033 1661 c-77 -20 -154 -85 -212 -181 l-21 -35 0 93 0 92 -150 0
c-82 0 -150 -3 -150 -6 0 -4 -13 -102 -30 -218 -72 -515 -120 -859 -120 -868
0 -5 76 -7 172 -6 l172 3 37 255 c20 140 44 274 53 298 34 92 87 180 126 207
34 24 46 26 104 23 l66 -3 19 60 c56 173 82 268 74 276 -12 12 -104 19 -140
10z"/>
<path d="M9522 1655 c-96 -27 -164 -67 -237 -140 -82 -81 -132 -170 -168 -295
-72 -248 -49 -478 58 -598 155 -172 479 -179 727 -14 21 13 38 28 38 32 0 4
-25 50 -56 103 l-56 95 -83 -44 c-174 -93 -309 -58 -323 84 l-4 49 58 7 c182
21 386 96 476 176 95 83 138 227 104 345 -23 77 -96 152 -181 185 -77 30 -270
38 -353 15z m187 -241 c37 -47 20 -124 -40 -189 -41 -45 -91 -68 -176 -83 -63
-11 -64 -8 -33 89 27 87 74 166 113 189 48 30 110 27 136 -6z"/>
<path d="M7430 1622 c0 -5 -25 -186 -56 -403 -60 -422 -67 -529 -40 -594 38
-91 110 -134 222 -135 93 0 168 36 248 120 32 33 59 60 62 60 2 0 1 -31 -2
-70 l-7 -70 152 0 c83 0 151 1 151 3 1 1 36 247 78 547 l77 545 -169 3 c-93 1
-171 1 -173 -1 -2 -2 -26 -163 -53 -356 -49 -351 -50 -353 -83 -399 -36 -51
-89 -92 -118 -92 -10 0 -26 12 -36 26 -16 25 -14 42 36 407 29 210 55 390 57
400 5 16 -8 17 -170 17 -97 0 -176 -4 -176 -8z"/>
</g>
</svg>
